<svg width="33" height="28" viewBox="0 0 33 28" fill="none" xmlns="http://www.w3.org/2000/svg">
<path d="M13.5221 22.6742L13.6237 22.3306L14.2334 21.9871C14.685 21.758 15.0124 21.5061 15.2156 21.2313C15.4414 20.9335 15.5995 20.5442 15.6898 20.0632L17.485 10.65C17.7334 9.3674 17.9705 8.03902 18.1963 6.66483C18.4447 5.26773 18.6818 3.90499 18.9076 2.57661C19.0656 1.66048 18.7156 0.973384 17.8576 0.51532L17.5189 0.343547L17.5866 0H25.7495C27.5334 0 28.956 0.240482 30.0173 0.721448C31.0785 1.20242 31.835 1.83225 32.2866 2.61096C32.7608 3.38967 32.9979 4.22564 32.9979 5.11886C32.9979 5.96628 32.7382 6.79079 32.2189 7.5924C31.6995 8.37111 30.9092 9.03531 29.8479 9.58498C28.7866 10.1347 27.4544 10.4897 25.8511 10.65C27.4544 10.8332 28.7527 11.2111 29.7463 11.7837C30.7398 12.3563 31.4624 13.0434 31.914 13.845C32.3882 14.6466 32.6253 15.494 32.6253 16.3872C32.6253 17.4637 32.2979 18.4829 31.6431 19.4448C30.9882 20.4067 29.9382 21.1854 28.4931 21.7809C27.0705 22.3764 25.1963 22.6742 22.8705 22.6742H13.5221ZM22.1253 10.3751H23.3108C25.0044 10.3751 26.2802 9.91708 27.1382 9.00095C27.9963 8.06192 28.4253 6.73354 28.4253 5.0158C28.4253 3.6187 28.1205 2.5537 27.5108 1.8208C26.9237 1.065 26.0431 0.687095 24.8689 0.687095H23.9205L22.1253 10.3751ZM20.0592 21.9871H22.0576C24.0447 21.9871 25.5237 21.4145 26.4947 20.2693C27.4882 19.1013 27.985 17.6011 27.985 15.7688C27.985 12.6311 26.4947 11.0622 23.514 11.0622H21.956L21.7866 11.9898C21.5156 13.6617 21.2221 15.3337 20.906 17.0056C20.6124 18.6775 20.3302 20.338 20.0592 21.9871Z" fill="#6F78C8"/>
<path d="M6.17204 25.4138C5.03394 25.1208 3.94288 24.6864 2.89887 24.1104C1.87675 23.5401 1.04934 22.89 0.416622 22.16L2.42943 17.4679L2.75773 17.5524L3.02653 20.528C3.12641 21.7115 3.40793 22.6347 3.87111 23.2974C4.35617 23.9657 5.1787 24.4492 6.3387 24.7478C7.63001 25.0803 8.74495 24.9538 9.68353 24.3684C10.644 23.7886 11.2603 22.9548 11.5325 21.8671C11.6769 21.2899 11.7255 20.7235 11.6782 20.1678C11.6308 19.6121 11.4249 18.992 11.0604 18.3074C10.7178 17.6285 10.151 16.821 9.36023 15.8849C8.395 14.7149 7.68946 13.6708 7.24362 12.7526C6.79777 11.8344 6.54613 10.9781 6.48869 10.1835C6.43126 9.38895 6.49697 8.61428 6.68584 7.8595C7.01359 6.54974 7.62797 5.49099 8.52899 4.68325C9.43557 3.85332 10.5355 3.32127 11.8288 3.0871C13.1496 2.83638 14.5541 2.90258 16.0424 3.28572C17.1367 3.56744 18.1813 4.00173 19.1759 4.58861C20.1981 5.15892 21.0064 5.79233 21.6009 6.48885L19.5151 10.9141L19.1868 10.8295L19.0801 8.46279C19.0243 7.19607 18.7814 6.21198 18.3512 5.5105C17.9266 4.78682 17.1342 4.27567 15.9743 3.97705C14.8361 3.68406 13.7898 3.76914 12.8352 4.23229C11.9025 4.70106 11.2973 5.49043 11.0196 6.6004C10.7807 7.55497 10.8158 8.48554 11.1247 9.39211C11.4337 10.2987 12.1254 11.3983 13.1997 12.6909C14.6065 14.4236 15.5077 15.8961 15.9032 17.1085C16.3262 18.3044 16.3877 19.5016 16.0877 20.7004C15.7322 22.1212 15.0765 23.252 14.1206 24.0929C13.1702 24.9115 12.0018 25.4378 10.6154 25.6716C9.2509 25.9111 7.76977 25.8251 6.17204 25.4138Z" fill="#6F78C8"/>
</svg>
